<?xml version="1.0" encoding="UTF-8"?>
<svg xmlns="http://www.w3.org/2000/svg" xmlns:xlink="http://www.w3.org/1999/xlink" viewBox="0 0 1875 633">
  <defs>
    <filter id="drop-shadow-1" filterUnits="userSpaceOnUse">
      <feOffset dx="0" dy="19"/>
      <feGaussianBlur result="blur" stdDeviation="6"/>
      <feFlood flood-color="#000" flood-opacity=".4"/>
      <feComposite in2="blur" operator="in"/>
      <feComposite in="SourceGraphic"/>
    </filter>
    <clipPath id="clippath">
      <rect x="1" y="1" width="1874" height="632" style="fill: none; stroke-width: 0px;"/>
    </clipPath>
  </defs>
  <g style="isolation: isolate;">
    <g id="Layer_1" data-name="Layer 1">
      <path d="M1521.67,62.13v570.87s-214.75-44.23-744.57-44.23-736.77,44.23-736.77,44.23V62.13h1481.35Z" style="fill: #fff; filter: url(#drop-shadow-1); opacity: .34; stroke-width: 0px;"/>
      <g style="clip-path: url(#clippath);">
        <rect x="1" y="1" width="2029" height="632" style="fill: #a6edff; stroke-width: 0px;"/>
        <g style="opacity: .13;">
          <path d="M2414.48,342.05c0-29.68,0-59.35,0-89.03-16.91,1.02-33.81,2.02-50.72,3,0,24.43-.01,48.86-.02,73.29-5.64.23-11.28.46-16.91.69,0-12.12,0-24.25.01-36.37,0-1.4,0-2.79,0-4.19,0-4.06,0-8.11,0-12.17-28.18,1.48-56.37,2.9-84.55,4.27.01-14.59.02-29.19.03-43.78-11.27.66-22.55,1.3-33.82,1.94,0,3.56,0,7.11,0,10.67,0,1.71,0,3.42,0,5.14h0c-1.41.08-2.82.15-4.23.22h0c-1.41.07-2.82.15-4.23.22h0c-1.41.07-2.82.15-4.23.22h0c-12.68.66-25.37,1.32-38.06,1.95-.03,26.07-.05,52.13-.08,78.2-7.05.24-14.1.48-21.15.72-2.82.09-5.64.19-8.46.28-1.41.05-2.82.09-4.23.14.02-20.71.05-41.42.07-62.13-8.46.39-16.92.77-25.38,1.14-2.82.13-5.64.25-8.47.37.01-10.29.03-20.58.04-30.86-11.28.56-22.56,1.12-33.84,1.66,0,4.24-.01,8.47-.02,12.71,0,.87,0,1.75,0,2.62-9.35.42-18.7.84-28.06,1.25-1.93.08-3.86.17-5.79.25-.02,15.24-.04,30.48-.06,45.72-2.82.1-5.64.2-8.46.3-1.41.05-2.82.1-4.23.15-12.7.44-25.39.87-38.08,1.3-19.75.66-39.5,1.29-59.24,1.9-2.82.09-5.64.17-8.46.26,0-4.98.01-9.96.02-14.94-2.82.09-5.64.18-8.47.28h0c-1.41.05-2.82.09-4.23.14-1.41.05-2.82.09-4.23.14,0,.62,0,1.24,0,1.86h0c0-.62,0-1.24,0-1.86-2.82.09-5.64.18-8.46.27-2.82.09-5.65.18-8.47.27.01-7.44.02-14.88.03-22.32,0-2.47,0-4.93.01-7.4,0-3.29,0-6.58.01-9.86-7.07.26-14.15.52-21.22.78-11.27.41-22.53.81-33.8,1.2-1.41.05-2.82.1-4.23.15-1.42.05-2.83.1-4.25.15-6.98.24-13.97.47-20.95.7,0,3.25,0,6.5-.01,9.74-.06,0-.13,0-.19,0-.04,24.46-.07,48.92-.11,73.38-7.06.15-14.11.3-21.17.45-2.82.06-5.65.12-8.47.18-1.41.03-2.82.06-4.23.09.02-12.18.04-24.35.05-36.53,0-3.02,0-6.03.01-9.05-28.22.74-56.44,1.43-84.66,2.07.02-13.89.04-27.78.06-41.67-16.93.46-33.87.9-50.8,1.31-.01,9.59-.03,19.18-.04,28.77-12.7.27-25.4.54-38.1.79-.02,14.93-.04,29.86-.05,44.79-4.24.07-8.47.13-12.71.2.02-14.91.03-29.82.05-44.73,0-2.52,0-5.04,0-7.56,0-2.25,0-4.51,0-6.76,0-1.79,0-3.58,0-5.37-5.64.12-11.29.23-16.93.35-1.41.03-2.82.06-4.23.08h0c-1.41.03-2.82.06-4.23.08h0c-1.41.03-2.82.06-4.23.08h0c-1.41.03-2.82.05-4.23.08h0c-9.88.19-19.76.37-29.64.55-7.06.13-14.12.25-21.17.36,0,1.78,0,3.55,0,5.33,0,2.24,0,4.48,0,6.71-.01,15.53-.03,31.07-.05,46.6,0,1.18,0,2.37,0,3.55-11.29.14-22.58.27-33.87.39-7.06.08-14.12.15-21.17.22-4.24.04-8.47.08-12.7.12,0,10.03-.02,20.05-.02,30.08-5.64.04-11.29.09-16.94.13,0-10.02.02-20.04.02-30.05.02-23.57.04-47.14.05-70.71-22.59.29-45.17.53-67.76.74,0,17.62-.02,35.24-.03,52.87,0,1.18,0,2.35,0,3.53-11.29.08-22.58.15-33.88.21-7.06.04-14.11.08-21.17.11-4.23.02-8.47.04-12.7.06,0,13.61,0,27.21-.01,40.82-5.65.02-11.29.04-16.94.05,0-25.32.01-50.64.02-75.97-16.94.07-33.88.12-50.82.15,0,29.05,0,58.11-.01,87.16,0,3.74,0,7.48,0,11.22,0,39.12,0,78.24-.01,117.36h1202.6v-164.01c-.24,0-.48.02-.72.03Z" style="fill: #003343; stroke-width: 0px;"/>
          <path d="M1303.01,352.23c-3.79.02-7.58.03-11.36.05,0-6.11,0-12.22,0-18.33,3.79-.02,7.58-.03,11.36-.05,0,6.11,0,12.23,0,18.34Z" style="fill: #003343; mix-blend-mode: screen; opacity: .39; stroke-width: 0px;"/>
          <path d="M1320.61,352.15c-3.79.02-7.57.04-11.36.05,0-6.11,0-12.23,0-18.34,3.79-.02,7.58-.04,11.36-.06,0,6.12,0,12.23,0,18.35Z" style="fill: #003343; mix-blend-mode: screen; opacity: .39; stroke-width: 0px;"/>
          <path d="M1303,375.83c-3.79.01-7.57.03-11.36.04,0-6.11,0-12.22,0-18.33,3.79-.01,7.57-.03,11.36-.05,0,6.11,0,12.23,0,18.34Z" style="fill: #003343; mix-blend-mode: screen; opacity: .39; stroke-width: 0px;"/>
          <path d="M1320.6,375.76c-3.79.02-7.58.03-11.36.05,0-6.11,0-12.23,0-18.34,3.79-.02,7.58-.03,11.36-.05,0,6.12,0,12.23,0,18.35Z" style="fill: #003343; mix-blend-mode: screen; opacity: .39; stroke-width: 0px;"/>
          <path d="M1302.99,399.43c-3.79.01-7.57.02-11.36.03,0-6.11,0-12.22,0-18.33,3.79-.01,7.57-.02,11.36-.04,0,6.11,0,12.23,0,18.34Z" style="fill: #003343; mix-blend-mode: screen; opacity: .39; stroke-width: 0px;"/>
          <path d="M1338.21,352.06c-3.79.02-7.58.04-11.36.06,0-6.12,0-12.24,0-18.35,3.79-.02,7.58-.04,11.36-.07,0,6.12,0,12.24-.01,18.36Z" style="fill: #003343; mix-blend-mode: screen; opacity: .39; stroke-width: 0px;"/>
          <path d="M1523.32,302.69c-3.79.06-7.58.12-11.36.17,0-6.18.01-12.36.02-18.54,3.79-.06,7.58-.13,11.36-.19,0,6.18-.01,12.37-.02,18.55Z" style="fill: #003343; mix-blend-mode: screen; opacity: .39; stroke-width: 0px;"/>
          <path d="M1540.92,302.41c-3.79.06-7.57.12-11.36.18,0-6.19.01-12.37.02-18.56,3.79-.07,7.58-.13,11.36-.2,0,6.19-.02,12.39-.02,18.58Z" style="fill: #003343; mix-blend-mode: screen; opacity: .39; stroke-width: 0px;"/>
          <path d="M1523.3,326.57c-3.79.05-7.58.1-11.36.15,0-6.18.01-12.36.02-18.54,3.79-.06,7.57-.11,11.36-.17,0,6.18-.01,12.37-.02,18.55Z" style="fill: #003343; mix-blend-mode: screen; opacity: .39; stroke-width: 0px;"/>
          <path d="M1540.9,326.32c-3.79.05-7.57.11-11.36.16,0-6.19.01-12.37.02-18.56,3.79-.06,7.58-.12,11.36-.18,0,6.19-.01,12.39-.02,18.58Z" style="fill: #003343; mix-blend-mode: screen; opacity: .39; stroke-width: 0px;"/>
          <path d="M1523.27,350.44c-3.79.05-7.57.09-11.36.13,0-6.18.01-12.36.02-18.54,3.79-.05,7.58-.1,11.36-.15,0,6.18-.01,12.37-.02,18.55Z" style="fill: #003343; mix-blend-mode: screen; opacity: .39; stroke-width: 0px;"/>
          <path d="M1405.72,295.01c-3.79.04-7.58.08-11.36.12,0-6.13,0-12.27.01-18.4,3.79-.04,7.57-.09,11.36-.13,0,6.14,0,12.28-.01,18.41Z" style="fill: #003343; mix-blend-mode: screen; opacity: .39; stroke-width: 0px;"/>
          <path d="M1388.49,295.19c-3.79.04-7.58.07-11.36.11,0-6.13,0-12.26.01-18.39,3.79-.04,7.58-.08,11.36-.12,0,6.13,0,12.27-.01,18.4Z" style="fill: #003343; mix-blend-mode: screen; opacity: .39; stroke-width: 0px;"/>
          <path d="M1405.71,318.71c-3.79.04-7.57.07-11.36.11,0-6.13,0-12.27.01-18.4,3.79-.04,7.58-.08,11.36-.12,0,6.14,0,12.28-.01,18.41Z" style="fill: #003343; mix-blend-mode: screen; opacity: .39; stroke-width: 0px;"/>
          <path d="M1405.69,342.4c-3.79.03-7.58.06-11.36.09,0-6.13,0-12.27.01-18.4,3.79-.03,7.58-.07,11.36-.1,0,6.14,0,12.28-.01,18.41Z" style="fill: #003343; mix-blend-mode: screen; opacity: .39; stroke-width: 0px;"/>
          <path d="M1558.52,302.11c-3.79.07-7.57.13-11.36.19,0-6.2.01-12.39.02-18.59,3.79-.07,7.57-.14,11.36-.21,0,6.2-.01,12.4-.02,18.61Z" style="fill: #003343; mix-blend-mode: screen; opacity: .39; stroke-width: 0px;"/>
          <path d="M1723.81,330.37c-3.79.08-7.57.16-11.36.24,0-6.3.02-12.6.03-18.9,3.79-.09,7.57-.17,11.36-.26,0,6.31-.02,12.61-.03,18.92Z" style="fill: #003343; mix-blend-mode: screen; opacity: .39; stroke-width: 0px;"/>
          <path d="M1741.4,329.99c-3.79.08-7.57.16-11.36.24,0-6.31.02-12.62.03-18.94,3.79-.09,7.57-.18,11.36-.27,0,6.32-.02,12.64-.03,18.96Z" style="fill: #003343; mix-blend-mode: screen; opacity: .39; stroke-width: 0px;"/>
          <path d="M1759,329.6c-3.79.08-7.57.17-11.36.25,0-6.33.02-12.65.03-18.98,3.79-.09,7.57-.18,11.36-.28,0,6.33-.02,12.67-.03,19Z" style="fill: #003343; mix-blend-mode: screen; opacity: .39; stroke-width: 0px;"/>
          <path d="M1825.57,291.8c-3.79.11-7.57.23-11.36.34,0-6.38.02-12.76.03-19.14,3.79-.12,7.57-.24,11.36-.37,0,6.39-.02,12.78-.03,19.17Z" style="fill: #003343; mix-blend-mode: screen; opacity: .39; stroke-width: 0px;"/>
          <path d="M1843.17,291.27c-3.79.12-7.57.23-11.36.35,0-6.4.02-12.79.03-19.19,3.79-.12,7.57-.25,11.36-.38,0,6.41-.02,12.81-.03,19.22Z" style="fill: #003343; mix-blend-mode: screen; opacity: .39; stroke-width: 0px;"/>
        </g>
        <g style="opacity: .13;">
          <path d="M1143.9,366.21c0-25.3,0-50.61,0-75.91-16.94-.03-33.88-.08-50.82-.15,0,21.1.01,42.19.02,63.29-5.65-.02-11.29-.03-16.94-.05,0-10.51,0-21.03-.01-31.54,0-1.21,0-2.42,0-3.63,0-3.52,0-7.03,0-10.55-28.23-.13-56.46-.31-84.69-.55,0-12.93-.02-25.87-.02-38.8-11.29-.11-22.59-.24-33.88-.37,0,3.18,0,6.36,0,9.54,0,1.53,0,3.06,0,4.59h0c-1.41-.02-2.82-.03-4.24-.05h0c-1.41-.02-2.82-.03-4.24-.05h0c-1.41-.02-2.82-.03-4.24-.05h0c-12.7-.15-25.41-.31-38.11-.49.02,23.62.04,47.23.06,70.85-7.06-.07-14.11-.13-21.17-.21-2.82-.03-5.64-.06-8.46-.09-1.41-.01-2.82-.03-4.24-.04-.02-18.93-.04-37.87-.05-56.8-8.47-.12-16.94-.25-25.4-.38-2.82-.04-5.65-.09-8.47-.13,0-9.49-.02-18.98-.03-28.47-11.29-.21-22.58-.42-33.88-.65,0,3.94,0,7.89.01,11.83,0,.81,0,1.63,0,2.44-9.36-.18-18.72-.36-28.08-.55-1.93-.04-3.86-.08-5.79-.12.02,14.32.03,28.63.05,42.95-2.82-.05-5.64-.09-8.46-.14-1.41-.02-2.82-.05-4.23-.07-12.7-.22-25.4-.45-38.1-.68-19.76-.37-39.51-.76-59.27-1.18-2.82-.06-5.64-.12-8.46-.18,0-4.83-.01-9.66-.02-14.49-2.83-.07-5.65-.13-8.47-.2h0c-1.41-.03-2.82-.07-4.23-.1-1.41-.03-2.82-.07-4.23-.1,0,.61,0,1.21,0,1.82h0c0-.61,0-1.21,0-1.82-2.82-.07-5.64-.14-8.46-.2-2.82-.07-5.65-.14-8.47-.21-.01-7.29-.02-14.57-.03-21.86,0-2.41,0-4.83-.01-7.24,0-3.22,0-6.44-.01-9.66-7.07-.21-14.15-.42-21.22-.64-11.27-.34-22.53-.7-33.8-1.06-1.41-.05-2.82-.09-4.24-.14-1.42-.05-2.83-.09-4.25-.14-6.98-.23-13.96-.46-20.95-.7,0,3.26,0,6.51.01,9.77-.06,0-.13,0-.19,0,.03,24.52.07,49.04.11,73.56-7.06-.16-14.11-.32-21.16-.48-2.82-.06-5.64-.13-8.47-.2-1.41-.03-2.82-.07-4.23-.1-.02-12.32-.04-24.64-.06-36.96,0-3.05,0-6.1-.01-9.15-28.22-.85-56.43-1.75-84.64-2.71-.02-14.38-.04-28.77-.06-43.15-16.93-.69-33.85-1.41-50.78-2.15.01,10.07.03,20.14.04,30.21-12.69-.49-25.39-.99-38.07-1.5.02,15.84.04,31.68.06,47.52-4.23-.13-8.47-.27-12.7-.41-.02-15.87-.04-31.75-.06-47.63,0-2.68,0-5.36-.01-8.04,0-2.4,0-4.8,0-7.2,0-1.9,0-3.81,0-5.71-5.64-.25-11.28-.51-16.92-.76-1.41-.06-2.82-.13-4.23-.19h0c-1.41-.06-2.82-.13-4.23-.19h0c-1.41-.06-2.82-.13-4.23-.2h0c-1.41-.06-2.82-.13-4.22-.2h0c-9.87-.46-19.74-.92-29.61-1.4-7.05-.34-14.1-.68-21.15-1.03,0,1.94,0,3.87,0,5.81,0,2.44,0,4.87,0,7.31.02,16.92.04,33.84.06,50.76,0,1.29,0,2.58,0,3.87-11.28-.4-22.56-.81-33.84-1.23-7.05-.26-14.1-.53-21.15-.79-4.23-.16-8.46-.32-12.69-.48,0,11.12.02,22.24.03,33.36-5.64-.18-11.28-.36-16.92-.54,0-11.16-.02-22.32-.03-33.47-.02-26.25-.05-52.5-.07-78.76-22.55-1.25-45.1-2.54-67.65-3.87.01,19.98.03,39.95.04,59.93,0,1.33,0,2.66,0,4-11.28-.51-22.55-1.02-33.83-1.55-7.05-.33-14.09-.66-21.14-.99-4.23-.2-8.45-.4-12.68-.6,0,15.69.01,31.39.02,47.08-5.64-.21-11.28-.42-16.92-.63,0-29.33-.02-58.66-.02-87.99-16.91-.98-33.81-1.98-50.72-3v253.05h1202.61c0-39.12,0-78.24-.01-117.36,0-3.74,0-7.48,0-11.22s0-7.5,0-11.25c-.24,0-.48,0-.73,0Z" style="fill: #003343; stroke-width: 0px;"/>
          <path d="M32.3,329.66c-3.78-.15-7.56-.3-11.35-.45,0-7.03,0-14.06,0-21.08,3.78.17,7.56.34,11.35.51,0,7.01,0,14.02,0,21.03Z" style="fill: #003343; mix-blend-mode: screen; opacity: .39; stroke-width: 0px;"/>
          <path d="M49.88,330.36c-3.78-.15-7.57-.3-11.35-.45,0-7,0-14,0-21,3.78.17,7.57.34,11.35.5,0,6.98,0,13.96.01,20.95Z" style="fill: #003343; mix-blend-mode: screen; opacity: .39; stroke-width: 0px;"/>
          <path d="M32.32,356.73c-3.78-.13-7.57-.26-11.35-.38,0-7.03,0-14.06,0-21.08,3.78.15,7.57.29,11.35.44,0,7.01,0,14.02,0,21.03Z" style="fill: #003343; mix-blend-mode: screen; opacity: .39; stroke-width: 0px;"/>
          <path d="M49.9,357.31c-3.78-.13-7.57-.25-11.35-.38,0-7,0-14,0-21,3.78.14,7.57.29,11.35.43,0,6.98,0,13.96.01,20.95Z" style="fill: #003343; mix-blend-mode: screen; opacity: .39; stroke-width: 0px;"/>
          <path d="M32.33,383.79c-3.78-.1-7.57-.21-11.35-.32,0-7.03,0-14.06,0-21.08,3.78.12,7.57.25,11.35.37,0,7.01,0,14.02,0,21.03Z" style="fill: #003343; mix-blend-mode: screen; opacity: .39; stroke-width: 0px;"/>
          <path d="M67.46,331.04c-3.78-.15-7.57-.29-11.35-.44,0-6.97,0-13.95-.01-20.92,3.78.17,7.57.33,11.35.49,0,6.96,0,13.91.01,20.87Z" style="fill: #003343; mix-blend-mode: screen; opacity: .39; stroke-width: 0px;"/>
          <path d="M252.28,285.91c-3.78-.16-7.57-.32-11.35-.48,0-6.71-.02-13.42-.02-20.13,3.78.18,7.57.35,11.35.52,0,6.69.02,13.39.02,20.08Z" style="fill: #003343; mix-blend-mode: screen; opacity: .39; stroke-width: 0px;"/>
          <path d="M269.87,286.64c-3.78-.16-7.57-.31-11.36-.47,0-6.69-.02-13.37-.02-20.06,3.78.17,7.57.34,11.35.51,0,6.67.02,13.34.03,20.02Z" style="fill: #003343; mix-blend-mode: screen; opacity: .39; stroke-width: 0px;"/>
          <path d="M252.32,311.75c-3.78-.14-7.57-.28-11.35-.42,0-6.71-.02-13.42-.02-20.13,3.78.16,7.57.31,11.35.47,0,6.69.01,13.39.02,20.08Z" style="fill: #003343; mix-blend-mode: screen; opacity: .39; stroke-width: 0px;"/>
          <path d="M269.9,312.4c-3.78-.14-7.57-.28-11.35-.42,0-6.69-.02-13.37-.02-20.06,3.78.15,7.57.31,11.35.46,0,6.67.02,13.35.03,20.02Z" style="fill: #003343; mix-blend-mode: screen; opacity: .39; stroke-width: 0px;"/>
          <path d="M252.35,337.59c-3.78-.12-7.57-.24-11.35-.37,0-6.71-.02-13.42-.02-20.13,3.78.14,7.57.28,11.35.41,0,6.7.02,13.39.02,20.08Z" style="fill: #003343; mix-blend-mode: screen; opacity: .39; stroke-width: 0px;"/>
          <path d="M134.81,270.37c-3.78-.19-7.57-.38-11.35-.57,0-6.87-.01-13.74-.02-20.61,3.78.21,7.57.41,11.35.62,0,6.85.01,13.71.02,20.56Z" style="fill: #003343; mix-blend-mode: screen; opacity: .39; stroke-width: 0px;"/>
          <path d="M117.6,269.5c-3.78-.19-7.57-.38-11.35-.58,0-6.9,0-13.79-.02-20.69,3.78.21,7.56.42,11.35.63,0,6.88.01,13.76.02,20.64Z" style="fill: #003343; mix-blend-mode: screen; opacity: .39; stroke-width: 0px;"/>
          <path d="M134.83,296.83c-3.78-.17-7.56-.33-11.35-.5,0-6.87-.01-13.74-.02-20.61,3.78.18,7.57.37,11.35.55,0,6.85.01,13.71.02,20.56Z" style="fill: #003343; mix-blend-mode: screen; opacity: .39; stroke-width: 0px;"/>
          <path d="M134.85,323.29c-3.78-.15-7.57-.29-11.35-.44,0-6.87-.01-13.74-.02-20.61,3.78.16,7.57.33,11.35.49,0,6.85.01,13.71.02,20.56Z" style="fill: #003343; mix-blend-mode: screen; opacity: .39; stroke-width: 0px;"/>
          <path d="M949.78,309.48c-3.79-.04-7.58-.08-11.36-.12,0-6.14,0-12.28-.01-18.43,3.79.04,7.58.09,11.36.13,0,6.14,0,12.28.01,18.42Z" style="fill: #003343; mix-blend-mode: screen; opacity: .39; stroke-width: 0px;"/>
          <path d="M932.55,309.3c-3.79-.04-7.58-.08-11.36-.13,0-6.15,0-12.3-.01-18.44,3.79.05,7.58.09,11.36.14,0,6.14,0,12.29.01,18.43Z" style="fill: #003343; mix-blend-mode: screen; opacity: .39; stroke-width: 0px;"/>
          <path d="M949.79,333.18c-3.79-.03-7.58-.07-11.36-.1,0-6.14,0-12.28-.01-18.43,3.79.04,7.58.08,11.36.11,0,6.14,0,12.28.01,18.42Z" style="fill: #003343; mix-blend-mode: screen; opacity: .39; stroke-width: 0px;"/>
          <path d="M949.81,356.87c-3.79-.03-7.58-.06-11.36-.09,0-6.14,0-12.28-.01-18.43,3.79.03,7.58.07,11.36.1,0,6.14,0,12.28.01,18.42Z" style="fill: #003343; mix-blend-mode: screen; opacity: .39; stroke-width: 0px;"/>
          <path d="M287.46,287.36c-3.78-.15-7.57-.31-11.35-.46,0-6.66-.02-13.33-.03-19.99,3.78.17,7.57.34,11.35.5,0,6.65.02,13.3.03,19.95Z" style="fill: #003343; mix-blend-mode: screen; opacity: .39; stroke-width: 0px;"/>
          <path d="M753.08,351.28c3.79.06,7.57.11,11.36.16,0-6.22-.02-12.44-.02-18.66-3.79-.06-7.57-.12-11.36-.18,0,6.23.01,12.45.02,18.68Z" style="fill: #003343; mix-blend-mode: screen; opacity: .39; stroke-width: 0px;"/>
          <path d="M735.48,351.02c3.79.06,7.57.11,11.36.17,0-6.23-.01-12.46-.02-18.69-3.79-.06-7.57-.13-11.36-.19,0,6.24.01,12.48.02,18.71Z" style="fill: #003343; mix-blend-mode: screen; opacity: .39; stroke-width: 0px;"/>
          <path d="M753.11,375.32c3.79.05,7.57.09,11.36.14,0-6.22-.01-12.44-.02-18.66-3.79-.05-7.57-.1-11.36-.16,0,6.23.01,12.45.02,18.68Z" style="fill: #003343; mix-blend-mode: screen; opacity: .39; stroke-width: 0px;"/>
          <path d="M735.51,375.1c3.79.05,7.57.1,11.36.14,0-6.23-.02-12.46-.02-18.69-3.79-.05-7.57-.11-11.36-.16,0,6.24.02,12.48.02,18.71Z" style="fill: #003343; mix-blend-mode: screen; opacity: .39; stroke-width: 0px;"/>
          <path d="M753.14,399.36c3.79.04,7.57.08,11.36.11,0-6.22-.01-12.44-.02-18.66-3.79-.04-7.57-.09-11.36-.13,0,6.23.01,12.45.02,18.68Z" style="fill: #003343; mix-blend-mode: screen; opacity: .39; stroke-width: 0px;"/>
          <path d="M717.89,350.75c3.79.06,7.57.12,11.36.18,0-6.24-.02-12.48-.02-18.73-3.79-.07-7.57-.13-11.36-.2,0,6.25.02,12.5.02,18.75Z" style="fill: #003343; mix-blend-mode: screen; opacity: .39; stroke-width: 0px;"/>
          <path d="M452.74,325.95c-3.79-.11-7.57-.21-11.36-.32,0-6.48-.02-12.96-.03-19.43,3.79.12,7.57.24,11.36.35,0,6.47.02,12.93.03,19.4Z" style="fill: #003343; mix-blend-mode: screen; opacity: .39; stroke-width: 0px;"/>
          <path d="M470.33,326.43c-3.79-.1-7.57-.21-11.36-.31,0-6.46-.02-12.92-.03-19.38,3.79.12,7.57.23,11.36.35,0,6.45.02,12.9.03,19.35Z" style="fill: #003343; mix-blend-mode: screen; opacity: .39; stroke-width: 0px;"/>
          <path d="M487.92,326.91c-3.79-.1-7.57-.2-11.36-.3,0-6.44-.02-12.89-.03-19.33,3.79.11,7.57.23,11.36.34,0,6.43.02,12.86.03,19.29Z" style="fill: #003343; mix-blend-mode: screen; opacity: .39; stroke-width: 0px;"/>
          <path d="M554.38,292.47c-3.79-.11-7.57-.22-11.36-.33,0-6.38-.02-12.76-.03-19.14,3.79.12,7.57.24,11.36.36,0,6.37.02,12.74.03,19.11Z" style="fill: #003343; mix-blend-mode: screen; opacity: .39; stroke-width: 0px;"/>
          <path d="M571.98,292.97c-3.79-.11-7.57-.21-11.36-.32,0-6.37-.02-12.73-.03-19.1,3.78.12,7.57.24,11.36.35,0,6.36.02,12.71.03,19.07Z" style="fill: #003343; mix-blend-mode: screen; opacity: .39; stroke-width: 0px;"/>
        </g>
        <path d="M-19.64,424.81c63.99-10.73,129.5-21.51,194.06-13.58,52.75,6.48,102.58,25.22,155.38,31.37,124.57,14.52,251.81-42.07,374.35-18.25,26.4,5.13,51.8,13.92,78.61,17.21,38.1,4.67,76.68-1.99,114.78-6.65,78.31-9.57,157.67-10.71,236.79-11.83,84.15-1.19,168.3-2.39,252.45-3.58,148.71-2.11,297.42-4.22,446.13-6.32,13.25-.19,27.67-.06,38.09,6.85,16.48,10.92,14.42,32.08,11.07,49.53-22.91,119.68-31.77,241.27-26.42,362.41-36.5-24.6-85.87-29.39-132.37-33.24-99.17-8.2-198.34-16.39-297.51-24.59-116.28-9.61-232.68-19.23-349.48-21.51-191.49-3.75-382.73,12.23-574.25,14.65-187.17,2.36-374.57-8.26-559.69-31.73-4.3-.55-8.91-1.22-12-3.81-4.49-3.75-4.03-9.86-3.26-15.15,14.74-100.88,29.48-201.76,44.21-302.64" style="fill: #7fbc7b; mix-blend-mode: multiply; opacity: .3; stroke-width: 0px;"/>
        <path d="M1883,431.6c-116.04-4.04-232.08-8.08-348.13-12.11-93.31-3.25-186.67-6.5-280.07-5.93-113.3.68-226.43,6.97-339.57,12.16-305.04,13.99-610.6,20.01-916.1,18.29-.78,92.69-1.56,185.39-2.35,278.08,282.59,6.31,565.21,11.73,847.86,16.2,344.65,5.45,689.61,9.51,1034.03-.36-.48-102.12.97-204.25,4.32-306.33Z" style="fill: #7fbc7b; stroke: #7fbc7b; stroke-linejoin: round; stroke-width: 1.02px;"/>
        <text transform="translate(598.97 139.6) scale(.96 1)" style="fill: #004d63; font-size: 122.14px;"><tspan x="0" y="0" style="font-family: ArialMT, Arial; letter-spacing: -.03em;">wth</tspan><tspan x="179.07" y="0" xml:space="preserve" style="font-family: Caveat-Regular, &apos;Caveat Regular&apos;; letter-spacing: -.03em;">  </tspan><tspan x="223.53" y="0" style="font-family: ClarendonBT-Black, &apos;Clarendon Blk BT&apos;; font-weight: 800; letter-spacing: -.03em;">SELENIUM</tspan></text>
        <text transform="translate(957.39 223.2) scale(1.06 1)" style="fill: #7fbc7b; font-family: PlaytimeWithHotToddies, PlaytimeWithHotToddies; font-size: 73.16px; letter-spacing: .12em; stroke: #7fbc7b; stroke-linejoin: round; stroke-width: 1.02px;"><tspan x="0" y="0">THINK GREEN</tspan></text>
        <g style="opacity: 0;">
          <text transform="translate(1082.51 279.12) scale(1.11 1)" style="fill: #fff; font-family: SourceSansPro-Regular, &apos;SourceSansPro Regular&apos;; font-size: 36.93px;"><tspan x="0" y="0" style="letter-spacing: .04em;">L</tspan><tspan x="18.76" y="0" style="letter-spacing: .05em;">o</tspan><tspan x="40.88" y="0" style="letter-spacing: .04em;">r</tspan><tspan x="54.44" y="0" style="letter-spacing: .05em;">em ipsum dolor sit </tspan></text>
        </g>
        <ellipse cx="258.79" cy="121.99" rx="67.72" ry="57.14" style="fill: #fabc30; stroke-width: 0px;"/>
        <path d="M123.69,156.81c6.99-2.94,14.72-4.46,22.48-5.26,3.93-.4,7.88-.62,11.83-.72.3-2.01.94-3.97,2.09-5.73,1.73-2.66,4.71-4.83,8.23-5.43,2.13-.36,4.32-.15,6.48.06.96.09,1.94.19,2.8.56.75.32,1.37.83,1.91,1.38,1.19-6.26,3.05-12.4,6.87-17.8,1.39-1.97,3.11-3.87,5.49-4.97,2.82-1.31,6.28-1.33,9.41-.68,6.49,1.35,11.92,5.48,14.84,10.55,1.58,2.74,2.46,5.74,2.74,8.78,1.02-.35,2.08-.63,3.16-.82,7.61-1.34,15.84,1.26,21.1,6.09,1.57,1.44,2.93,3.11,3.54,5,.21.64.31,1.31.31,1.97,4.99.04,9.89,1.14,13.93,3.58,3.01,1.82,5.52,4.49,5.98,7.59.02.16.04.32.05.48H115.2c2.6-1.81,5.47-3.36,8.49-4.62Z" style="fill: #fff; stroke-width: 0px;"/>
        <path d="M537.4,186.07c.23-.85.28-1.75.12-2.61-.39-2.2-1.99-4.11-3.73-5.79-1.01-.97-2.13-1.92-3.56-2.37-1.29-.4-2.72-.36-4.08-.18-2.16.29-4.29.95-5.98,2.12-.14-.52-.3-1.05-.5-1.56-1.77-4.59-6.36-8.37-11.89-9.6-5.53-1.23-11.83.22-15.71,3.76-2.87,2.62-4.27,6.32-3.87,9.85-.38,0-.76,0-1.14,0-1.49.03-3.01.09-4.4.53-1.81.57-3.33,1.79-4.09,3.29-.6,1.17-.73,2.51-.4,3.76-.21.01-.42.03-.63.05-1.11.11-2.2.32-3.27.57-2.31.52-4.59,1.21-6.55,2.36-1.08.64-2.05,1.43-2.79,2.35h106.37c-9.98-5.34-22.16-7.66-33.89-6.53Z" style="fill: #fff; stroke-width: 0px;"/>
        <g>
          <polygon points="392.77 434.6 326.01 419.82 326.01 574.42 392.77 574.42 392.77 434.6" style="fill: #fff; stroke-width: 0px;"/>
          <polygon points="392.77 434.6 326.01 419.82 326.01 574.42 392.77 574.42 392.77 434.6" style="fill: #a6edff; opacity: .46; stroke-width: 0px;"/>
        </g>
        <polygon points="326.01 419.82 124.16 434.6 124.16 574.42 326.01 574.42 326.01 419.82" style="fill: #fff; stroke-width: 0px;"/>
        <path d="M239.79,451.36l-16.69,48.63-7.49-9.35c10.42-.23,31.83.28,31.83.28l-36.89,51.96,16.51-48.29,7.49,9.35c-10.42.23-31.83-.27-31.83-.27l37.07-52.31h0Z" style="fill: #fabc30; stroke-width: 0px;"/>
        <path d="M379.18,568.31c49.92-1.03,99.9-2.44,149.66-6.69,23.4-2,47.51-3.69,69.97-11,18.78-6.11,35.84-16.22,52.66-26.36,20.17-12.16,40.1-23.26,62.8-29.99.43-.13.25-.76-.18-.67-39.2,8.52-69.78,38.13-106.45,52.82-22.58,9.04-46.93,11.36-70.96,13.54s-49.12,3.68-73.72,4.73c-27.92,1.19-55.86,1.82-83.79,2.62-.64.02-.64,1,0,.99h0Z" style="fill: #fff; stroke-width: 0px;"/>
        <path d="M388.21,566.37c93.25.93,186.57.98,279.77-2.41,46.9-1.7,93.77-4.26,140.64-6.57,43.59-2.15,87.94-2.24,131.09-9.27,38.93-6.34,82.3-19.03,110.21-48.61.18-.19-.09-.45-.28-.28-62.22,56.07-152.69,52.64-231.04,56.5-91.67,4.51-183.25,9-275.04,9.94-51.78.53-103.57.4-155.35.45-.16,0-.16.25,0,.25h0Z" style="fill: #fff; stroke-width: 0px;"/>
        <path d="M379.87,567.89c73.37,2.92,146.83,4.94,220.25,5.7,73.22.76,146.37-.88,219.54-3.28,72.6-2.38,145.24-4.97,217.89-4.23,36.58.37,73.1,1.81,109.62,4.03,35.89,2.18,71.86,4.53,107.84,3.24,57.89-2.08,121.45-14.09,166.43-53.34,5.16-4.5,9.88-9.38,14.26-14.63.26-.31-.17-.75-.45-.45-40.88,45.07-103.95,61.92-162.69,66.15-35.88,2.58-71.89.9-107.75-1.21-35.78-2.11-71.53-4.09-107.37-4.76-71.94-1.34-143.88.92-215.77,3.33-72.42,2.43-144.83,4.77-217.3,4.44-72.4-.33-144.74-2.7-217.1-4.96-9.13-.29-18.26-.57-27.39-.81-.5-.01-.49.75,0,.77h0Z" style="fill: #fff; stroke-width: 0px;"/>
        <path d="M1670.32,498c4.57,10.93-2.24,19.4-15.15,18.79l-743.76-35.34c-12.91-.61-26.48-6.62-30.17-13.32l-32.99-58.18c-3.69-6.31,3.71-11.64,16.43-11.89l733.29-14.14c12.72-.25,26.88,8.06,31.45,18.5l40.91,95.58Z" style="fill: none; stroke: #fff; stroke-miterlimit: 10; stroke-width: 2.18px;"/>
        <g>
          <polygon points="1543.32 571.6 1239.52 547.52 1232.36 535.43 1536.16 557.3 1543.32 571.6" style="fill: #a6edff; stroke-width: 0px;"/>
          <polygon points="1544.31 527.43 1536.16 557.3 1543.32 571.6 1648.39 319.46 1644.94 305.26 1544.31 527.43" style="fill: #a6edff; stroke-width: 0px;"/>
          <g>
            <g>
              <g>
                <polygon points="1377.21 379.25 1319.19 380.67 1344.85 327.59 1402.88 324.38 1377.21 379.25" style="fill: #004d63; stroke-width: 0px;"/>
                <polygon points="1348.22 332.88 1319.19 380.67 1344.85 327.59 1402.88 324.38 1348.22 332.88" style="fill: #004d63; mix-blend-mode: screen; stroke-width: 0px;"/>
              </g>
              <g>
                <polygon points="1435.24 377.83 1377.21 379.25 1402.88 324.38 1460.9 321.17 1435.24 377.83" style="fill: #004d63; stroke-width: 0px;"/>
                <polygon points="1406.25 329.85 1377.21 379.25 1402.88 324.38 1460.9 321.17 1406.25 329.85" style="fill: #004d63; mix-blend-mode: screen; stroke-width: 0px;"/>
              </g>
              <g>
                <polygon points="1493.26 376.41 1435.24 377.83 1460.9 321.17 1518.93 317.95 1493.26 376.41" style="fill: #004d63; stroke-width: 0px;"/>
                <polygon points="1464.27 326.83 1435.24 377.83 1460.9 321.17 1518.93 317.95 1464.27 326.83" style="fill: #004d63; mix-blend-mode: screen; stroke-width: 0px;"/>
              </g>
              <g>
                <polygon points="1551.29 374.99 1493.26 376.41 1518.93 317.95 1576.95 314.74 1551.29 374.99" style="fill: #004d63; stroke-width: 0px;"/>
                <polygon points="1522.3 323.8 1493.26 376.41 1518.93 317.95 1576.95 314.74 1522.3 323.8" style="fill: #004d63; mix-blend-mode: screen; stroke-width: 0px;"/>
              </g>
              <g>
                <polygon points="1609.32 373.57 1551.29 374.99 1576.95 314.74 1634.98 311.53 1609.32 373.57" style="fill: #004d63; stroke-width: 0px;"/>
                <polygon points="1580.32 320.77 1551.29 374.99 1576.95 314.74 1634.98 311.53 1580.32 320.77" style="fill: #004d63; mix-blend-mode: screen; stroke-width: 0px;"/>
              </g>
              <g>
                <polygon points="1351.55 432.53 1293.52 432.15 1319.19 380.67 1377.21 379.25 1351.55 432.53" style="fill: #004d63; stroke-width: 0px;"/>
                <polygon points="1322.56 385.97 1293.52 432.15 1319.19 380.67 1377.21 379.25 1322.56 385.97" style="fill: #004d63; mix-blend-mode: screen; stroke-width: 0px;"/>
              </g>
              <g>
                <polygon points="1409.57 432.9 1351.55 432.53 1377.21 379.25 1435.24 377.83 1409.57 432.9" style="fill: #004d63; stroke-width: 0px;"/>
                <polygon points="1380.58 384.74 1351.55 432.53 1377.21 379.25 1435.24 377.83 1380.58 384.74" style="fill: #004d63; mix-blend-mode: screen; stroke-width: 0px;"/>
              </g>
              <g>
                <polygon points="1467.6 433.28 1409.57 432.9 1435.24 377.83 1493.26 376.41 1467.6 433.28" style="fill: #004d63; stroke-width: 0px;"/>
                <polygon points="1438.61 383.51 1409.57 432.9 1435.24 377.83 1493.26 376.41 1438.61 383.51" style="fill: #004d63; mix-blend-mode: screen; stroke-width: 0px;"/>
              </g>
              <g>
                <polygon points="1525.63 433.66 1467.6 433.28 1493.26 376.41 1551.29 374.99 1525.63 433.66" style="fill: #004d63; stroke-width: 0px;"/>
                <polygon points="1496.63 382.28 1467.6 433.28 1493.26 376.41 1551.29 374.99 1496.63 382.28" style="fill: #004d63; mix-blend-mode: screen; stroke-width: 0px;"/>
              </g>
              <g>
                <polygon points="1583.65 434.03 1525.63 433.66 1551.29 374.99 1609.32 373.57 1583.65 434.03" style="fill: #004d63; stroke-width: 0px;"/>
                <polygon points="1554.66 381.05 1525.63 433.66 1551.29 374.99 1609.32 373.57 1554.66 381.05" style="fill: #004d63; mix-blend-mode: screen; stroke-width: 0px;"/>
              </g>
              <g>
                <polygon points="1325.88 484.22 1267.86 482.05 1293.52 432.15 1351.55 432.53 1325.88 484.22" style="fill: #004d63; stroke-width: 0px;"/>
                <polygon points="1296.89 437.48 1267.86 482.05 1293.52 432.15 1351.55 432.53 1296.89 437.48" style="fill: #004d63; mix-blend-mode: screen; stroke-width: 0px;"/>
              </g>
              <g>
                <polygon points="1383.91 486.39 1325.88 484.22 1351.55 432.53 1409.57 432.9 1383.91 486.39" style="fill: #004d63; stroke-width: 0px;"/>
                <polygon points="1354.92 438.04 1325.88 484.22 1351.55 432.53 1409.57 432.9 1354.92 438.04" style="fill: #004d63; mix-blend-mode: screen; stroke-width: 0px;"/>
              </g>
              <g>
                <polygon points="1441.94 488.56 1383.91 486.39 1409.57 432.9 1467.6 433.28 1441.94 488.56" style="fill: #004d63; stroke-width: 0px;"/>
                <polygon points="1412.94 438.61 1383.91 486.39 1409.57 432.9 1467.6 433.28 1412.94 438.61" style="fill: #004d63; mix-blend-mode: screen; stroke-width: 0px;"/>
              </g>
              <g>
                <polygon points="1499.96 490.73 1441.94 488.56 1467.6 433.28 1525.63 433.66 1499.96 490.73" style="fill: #004d63; stroke-width: 0px;"/>
                <polygon points="1470.97 439.17 1441.94 488.56 1467.6 433.28 1525.63 433.66 1470.97 439.17" style="fill: #004d63; mix-blend-mode: screen; stroke-width: 0px;"/>
              </g>
              <g>
                <polygon points="1557.99 492.9 1499.96 490.73 1525.63 433.66 1583.65 434.03 1557.99 492.9" style="fill: #004d63; stroke-width: 0px;"/>
                <polygon points="1529 439.73 1499.96 490.73 1525.63 433.66 1583.65 434.03 1529 439.73" style="fill: #004d63; mix-blend-mode: screen; stroke-width: 0px;"/>
              </g>
              <g>
                <polygon points="1300.22 534.32 1242.19 530.36 1267.86 482.05 1325.88 484.22 1300.22 534.32" style="fill: #004d63; stroke-width: 0px;"/>
                <polygon points="1271.23 487.4 1242.19 530.36 1267.86 482.05 1325.88 484.22 1271.23 487.4" style="fill: #004d63; mix-blend-mode: screen; stroke-width: 0px;"/>
              </g>
              <g>
                <polygon points="1358.24 538.29 1300.22 534.32 1325.88 484.22 1383.91 486.39 1358.24 538.29" style="fill: #004d63; stroke-width: 0px;"/>
                <polygon points="1329.25 489.76 1300.22 534.32 1325.88 484.22 1383.91 486.39 1329.25 489.76" style="fill: #004d63; mix-blend-mode: screen; stroke-width: 0px;"/>
              </g>
              <g>
                <polygon points="1416.27 542.26 1358.24 538.29 1383.91 486.39 1441.94 488.56 1416.27 542.26" style="fill: #004d63; stroke-width: 0px;"/>
                <polygon points="1387.28 492.11 1358.24 538.29 1383.91 486.39 1441.94 488.56 1387.28 492.11" style="fill: #004d63; mix-blend-mode: screen; stroke-width: 0px;"/>
              </g>
              <g>
                <polygon points="1474.3 546.22 1416.27 542.26 1441.94 488.56 1499.96 490.73 1474.3 546.22" style="fill: #004d63; stroke-width: 0px;"/>
                <polygon points="1445.31 494.47 1416.27 542.26 1441.94 488.56 1499.96 490.73 1445.31 494.47" style="fill: #004d63; mix-blend-mode: screen; stroke-width: 0px;"/>
              </g>
              <g>
                <polygon points="1532.32 550.19 1474.3 546.22 1499.96 490.73 1557.99 492.9 1532.32 550.19" style="fill: #004d63; stroke-width: 0px;"/>
                <polygon points="1503.33 496.83 1474.3 546.22 1499.96 490.73 1557.99 492.9 1503.33 496.83" style="fill: #004d63; mix-blend-mode: screen; stroke-width: 0px;"/>
              </g>
            </g>
            <g>
              <path d="M1377.85,380.28l-60.3,1.44,26.67-55.12,60.3-3.38-26.67,57.06ZM1320.83,379.61l55.75-1.4,24.66-52.68-55.75,3.05-24.66,51.03Z" style="fill: #fff; stroke-width: 0px;"/>
              <path d="M1435.87,378.9l-60.3,1.44,26.67-56.98,60.3-3.38-26.67,58.92ZM1378.85,378.16l55.75-1.4,24.66-54.41-55.75,3.05-24.66,52.75Z" style="fill: #fff; stroke-width: 0px;"/>
              <path d="M1493.9,377.51l-60.3,1.44,26.67-58.85,60.3-3.38-26.67,60.79ZM1436.88,376.7l55.75-1.4,24.66-56.13-55.75,3.05-24.66,54.47Z" style="fill: #fff; stroke-width: 0px;"/>
              <path d="M1551.92,376.13l-60.3,1.44,26.67-60.71,60.3-3.38-26.67,62.65ZM1494.9,375.25l55.75-1.4,24.66-57.86-55.75,3.05-24.66,56.2Z" style="fill: #fff; stroke-width: 0px;"/>
              <path d="M1609.95,374.75l-60.3,1.44,26.67-62.58,60.3-3.38-26.67,64.52ZM1552.93,373.8l55.75-1.4,24.66-59.58-55.75,3.05-24.66,57.92Z" style="fill: #fff; stroke-width: 0px;"/>
              <g>
                <path d="M1352.18,433.56l-60.3-.43,26.67-53.47,60.3-1.51-26.67,55.41ZM1295.16,431.16l55.75.33,24.66-51.16-55.75,1.33-24.66,49.5Z" style="fill: #fff; stroke-width: 0px;"/>
                <path d="M1410.21,433.98l-60.3-.43,26.67-55.33,60.3-1.51-26.67,57.27ZM1353.19,431.5l55.75.33,24.66-52.88-55.75,1.33-24.66,51.22Z" style="fill: #fff; stroke-width: 0px;"/>
                <path d="M1468.23,434.39l-60.3-.43,26.67-57.2,60.3-1.51-26.67,59.14ZM1411.21,431.84l55.75.33,24.66-54.61-55.75,1.33-24.66,52.95Z" style="fill: #fff; stroke-width: 0px;"/>
                <path d="M1526.26,434.8l-60.3-.43,26.67-59.06,60.3-1.51-26.67,61ZM1469.24,432.19l55.75.33,24.66-56.33-55.75,1.33-24.66,54.67Z" style="fill: #fff; stroke-width: 0px;"/>
                <path d="M1584.29,435.21l-60.3-.43,26.67-60.93,60.3-1.51-26.67,62.87ZM1527.27,432.53l55.75.33,24.66-58.06-55.75,1.33-24.66,56.4Z" style="fill: #fff; stroke-width: 0px;"/>
              </g>
              <g>
                <path d="M1326.52,485.26l-60.3-2.29,26.67-51.82,60.3.36-26.67,53.76ZM1269.5,481.13l55.75,2.05,24.66-49.63-55.75-.4-24.66,47.97Z" style="fill: #fff; stroke-width: 0px;"/>
                <path d="M1384.54,487.47l-60.3-2.29,26.67-53.68,60.3.35-26.67,55.62ZM1327.52,483.26l55.75,2.05,24.66-51.36-55.75-.4-24.66,49.7Z" style="fill: #fff; stroke-width: 0px;"/>
                <path d="M1442.57,489.67l-60.3-2.29,26.67-55.55,60.3.35-26.67,57.49ZM1385.55,485.4l55.75,2.05,24.66-53.08-55.75-.4-24.66,51.42Z" style="fill: #fff; stroke-width: 0px;"/>
                <path d="M1500.6,491.88l-60.3-2.29,26.67-57.41,60.3.35-26.67,59.35ZM1443.58,487.53l55.75,2.05,24.66-54.8-55.75-.4-24.66,53.15Z" style="fill: #fff; stroke-width: 0px;"/>
                <path d="M1558.62,494.09l-60.3-2.29,26.67-59.28,60.3.35-26.67,61.22ZM1501.6,489.67l55.75,2.05,24.66-56.53-55.75-.4-24.66,54.87Z" style="fill: #fff; stroke-width: 0px;"/>
              </g>
              <g>
                <path d="M1300.85,535.37l-60.3-4.16,26.67-50.17,60.3,2.22-26.67,52.11ZM1243.83,529.5l55.75,3.78,24.66-48.11-55.75-2.12-24.66,46.45Z" style="fill: #fff; stroke-width: 0px;"/>
                <path d="M1358.88,539.37l-60.3-4.16,26.67-52.03,60.3,2.22-26.67,53.97ZM1301.86,533.43l55.75,3.78,24.66-49.83-55.75-2.12-24.66,48.17Z" style="fill: #fff; stroke-width: 0px;"/>
                <path d="M1416.91,543.37l-60.3-4.16,26.67-53.9,60.3,2.22-26.67,55.84ZM1359.89,537.36l55.75,3.78,24.66-51.55-55.75-2.12-24.66,49.9Z" style="fill: #fff; stroke-width: 0px;"/>
                <path d="M1474.93,547.37l-60.3-4.16,26.67-55.76,60.3,2.22-26.67,57.7ZM1417.91,541.3l55.75,3.78,24.66-53.28-55.75-2.12-24.66,51.62Z" style="fill: #fff; stroke-width: 0px;"/>
                <path d="M1532.96,551.37l-60.3-4.16,26.67-57.63,60.3,2.22-26.67,59.57ZM1475.94,545.23l55.75,3.78,24.66-55-55.75-2.12-24.66,53.35Z" style="fill: #fff; stroke-width: 0px;"/>
              </g>
            </g>
            <path d="M1634.98,311.53l-102.66,238.66-290.13-19.83,102.66-202.76,290.13-16.07M1644.83,303.72l-6.83.4-290.13,17.12-6.83.4-3.02,6.32-102.66,201.92-3.02,5.55,6.83.49,290.13,20.89,6.83.49,3.02-6.66,102.66-239.51,3.02-7.43h0Z" style="fill: #fff; stroke-width: 0px;"/>
          </g>
        </g>
        <g>
          <polygon points="1214.11 545.51 910.31 521.42 903.15 511.73 1206.95 533.6 1214.11 545.51" style="fill: #a6edff; stroke-width: 0px;"/>
          <polygon points="1215.1 509.02 1206.95 533.6 1214.11 545.51 1319.19 336.26 1315.73 324.43 1215.1 509.02" style="fill: #a6edff; stroke-width: 0px;"/>
          <g>
            <g>
              <g>
                <polygon points="1048 387.29 989.98 388.71 1015.64 345.82 1073.67 342.61 1048 387.29" style="fill: #004d63; stroke-width: 0px;"/>
                <polygon points="1019.01 350.05 989.98 388.71 1015.64 345.82 1073.67 342.61 1019.01 350.05" style="fill: #004d63; mix-blend-mode: screen; stroke-width: 0px;"/>
              </g>
              <g>
                <polygon points="1106.03 385.88 1048 387.29 1073.67 342.61 1131.69 339.4 1106.03 385.88" style="fill: #004d63; stroke-width: 0px;"/>
                <polygon points="1077.04 347.02 1048 387.29 1073.67 342.61 1131.69 339.4 1077.04 347.02" style="fill: #004d63; mix-blend-mode: screen; stroke-width: 0px;"/>
              </g>
              <g>
                <polygon points="1164.05 384.46 1106.03 385.88 1131.69 339.4 1189.72 336.18 1164.05 384.46" style="fill: #004d63; stroke-width: 0px;"/>
                <polygon points="1135.06 344 1106.03 385.88 1131.69 339.4 1189.72 336.18 1135.06 344" style="fill: #004d63; mix-blend-mode: screen; stroke-width: 0px;"/>
              </g>
              <g>
                <polygon points="1222.08 383.04 1164.05 384.46 1189.72 336.18 1247.74 332.97 1222.08 383.04" style="fill: #004d63; stroke-width: 0px;"/>
                <polygon points="1193.09 340.97 1164.05 384.46 1189.72 336.18 1247.74 332.97 1193.09 340.97" style="fill: #004d63; mix-blend-mode: screen; stroke-width: 0px;"/>
              </g>
              <g>
                <polygon points="1280.11 381.62 1222.08 383.04 1247.74 332.97 1305.77 329.76 1280.11 381.62" style="fill: #004d63; stroke-width: 0px;"/>
                <polygon points="1251.12 337.94 1222.08 383.04 1247.74 332.97 1305.77 329.76 1251.12 337.94" style="fill: #004d63; mix-blend-mode: screen; stroke-width: 0px;"/>
              </g>
              <g>
                <polygon points="1022.34 430.39 964.31 430.01 989.98 388.71 1048 387.29 1022.34 430.39" style="fill: #004d63; stroke-width: 0px;"/>
                <polygon points="993.35 392.96 964.31 430.01 989.98 388.71 1048 387.29 993.35 392.96" style="fill: #004d63; mix-blend-mode: screen; stroke-width: 0px;"/>
              </g>
              <g>
                <polygon points="1080.36 430.77 1022.34 430.39 1048 387.29 1106.03 385.88 1080.36 430.77" style="fill: #004d63; stroke-width: 0px;"/>
                <polygon points="1051.37 391.73 1022.34 430.39 1048 387.29 1106.03 385.88 1051.37 391.73" style="fill: #004d63; mix-blend-mode: screen; stroke-width: 0px;"/>
              </g>
              <g>
                <polygon points="1138.39 431.14 1080.36 430.77 1106.03 385.88 1164.05 384.46 1138.39 431.14" style="fill: #004d63; stroke-width: 0px;"/>
                <polygon points="1109.4 390.5 1080.36 430.77 1106.03 385.88 1164.05 384.46 1109.4 390.5" style="fill: #004d63; mix-blend-mode: screen; stroke-width: 0px;"/>
              </g>
              <g>
                <polygon points="1196.42 431.52 1138.39 431.14 1164.05 384.46 1222.08 383.04 1196.42 431.52" style="fill: #004d63; stroke-width: 0px;"/>
                <polygon points="1167.42 389.27 1138.39 431.14 1164.05 384.46 1222.08 383.04 1167.42 389.27" style="fill: #004d63; mix-blend-mode: screen; stroke-width: 0px;"/>
              </g>
              <g>
                <polygon points="1254.44 431.9 1196.42 431.52 1222.08 383.04 1280.11 381.62 1254.44 431.9" style="fill: #004d63; stroke-width: 0px;"/>
                <polygon points="1225.45 388.03 1196.42 431.52 1222.08 383.04 1280.11 381.62 1225.45 388.03" style="fill: #004d63; mix-blend-mode: screen; stroke-width: 0px;"/>
              </g>
              <g>
                <polygon points="996.67 471.9 938.65 469.73 964.31 430.01 1022.34 430.39 996.67 471.9" style="fill: #004d63; stroke-width: 0px;"/>
                <polygon points="967.68 434.28 938.65 469.73 964.31 430.01 1022.34 430.39 967.68 434.28" style="fill: #004d63; mix-blend-mode: screen; stroke-width: 0px;"/>
              </g>
              <g>
                <polygon points="1054.7 474.07 996.67 471.9 1022.34 430.39 1080.36 430.77 1054.7 474.07" style="fill: #004d63; stroke-width: 0px;"/>
                <polygon points="1025.71 434.85 996.67 471.9 1022.34 430.39 1080.36 430.77 1025.71 434.85" style="fill: #004d63; mix-blend-mode: screen; stroke-width: 0px;"/>
              </g>
              <g>
                <polygon points="1112.73 476.24 1054.7 474.07 1080.36 430.77 1138.39 431.14 1112.73 476.24" style="fill: #004d63; stroke-width: 0px;"/>
                <polygon points="1083.73 435.41 1054.7 474.07 1080.36 430.77 1138.39 431.14 1083.73 435.41" style="fill: #004d63; mix-blend-mode: screen; stroke-width: 0px;"/>
              </g>
              <g>
                <polygon points="1170.75 478.41 1112.73 476.24 1138.39 431.14 1196.42 431.52 1170.75 478.41" style="fill: #004d63; stroke-width: 0px;"/>
                <polygon points="1141.76 435.97 1112.73 476.24 1138.39 431.14 1196.42 431.52 1141.76 435.97" style="fill: #004d63; mix-blend-mode: screen; stroke-width: 0px;"/>
              </g>
              <g>
                <polygon points="1228.78 480.58 1170.75 478.41 1196.42 431.52 1254.44 431.9 1228.78 480.58" style="fill: #004d63; stroke-width: 0px;"/>
                <polygon points="1199.79 436.54 1170.75 478.41 1196.42 431.52 1254.44 431.9 1199.79 436.54" style="fill: #004d63; mix-blend-mode: screen; stroke-width: 0px;"/>
              </g>
              <g>
                <polygon points="971.01 511.82 912.98 507.85 938.65 469.73 996.67 471.9 971.01 511.82" style="fill: #004d63; stroke-width: 0px;"/>
                <polygon points="942.02 474.02 912.98 507.85 938.65 469.73 996.67 471.9 942.02 474.02" style="fill: #004d63; mix-blend-mode: screen; stroke-width: 0px;"/>
              </g>
              <g>
                <polygon points="1029.04 515.78 971.01 511.82 996.67 471.9 1054.7 474.07 1029.04 515.78" style="fill: #004d63; stroke-width: 0px;"/>
                <polygon points="1000.04 476.37 971.01 511.82 996.67 471.9 1054.7 474.07 1000.04 476.37" style="fill: #004d63; mix-blend-mode: screen; stroke-width: 0px;"/>
              </g>
              <g>
                <polygon points="1087.06 519.75 1029.04 515.78 1054.7 474.07 1112.73 476.24 1087.06 519.75" style="fill: #004d63; stroke-width: 0px;"/>
                <polygon points="1058.07 478.73 1029.04 515.78 1054.7 474.07 1112.73 476.24 1058.07 478.73" style="fill: #004d63; mix-blend-mode: screen; stroke-width: 0px;"/>
              </g>
              <g>
                <polygon points="1145.09 523.72 1087.06 519.75 1112.73 476.24 1170.75 478.41 1145.09 523.72" style="fill: #004d63; stroke-width: 0px;"/>
                <polygon points="1116.1 481.09 1087.06 519.75 1112.73 476.24 1170.75 478.41 1116.1 481.09" style="fill: #004d63; mix-blend-mode: screen; stroke-width: 0px;"/>
              </g>
              <g>
                <polygon points="1203.11 527.68 1145.09 523.72 1170.75 478.41 1228.78 480.58 1203.11 527.68" style="fill: #004d63; stroke-width: 0px;"/>
                <polygon points="1174.12 483.45 1145.09 523.72 1170.75 478.41 1228.78 480.58 1174.12 483.45" style="fill: #004d63; mix-blend-mode: screen; stroke-width: 0px;"/>
              </g>
            </g>
            <g>
              <path d="M1048.64,388.13l-60.3,1.44,26.67-44.53,60.3-3.38-26.67,46.47ZM991.62,387.86l55.75-1.4,24.66-42.9-55.75,3.05-24.66,41.24Z" style="fill: #fff; stroke-width: 0px;"/>
              <path d="M1106.66,386.74l-60.3,1.44,26.67-46.4,60.3-3.38-26.67,48.34ZM1049.64,386.4l55.75-1.4,24.66-44.62-55.75,3.05-24.66,42.97Z" style="fill: #fff; stroke-width: 0px;"/>
              <path d="M1164.69,385.36l-60.3,1.44,26.67-48.26,60.3-3.38-26.67,50.2ZM1107.67,384.95l55.75-1.4,24.66-46.35-55.75,3.05-24.66,44.69Z" style="fill: #fff; stroke-width: 0px;"/>
              <path d="M1222.71,383.98l-60.3,1.44,26.67-50.13,60.3-3.38-26.67,52.07ZM1165.7,383.5l55.75-1.4,24.66-48.07-55.75,3.05-24.66,46.41Z" style="fill: #fff; stroke-width: 0px;"/>
              <path d="M1280.74,382.59l-60.3,1.44,26.67-52,60.3-3.38-26.67,53.93ZM1223.72,382.04l55.75-1.4,24.66-49.8-55.75,3.05-24.66,48.14Z" style="fill: #fff; stroke-width: 0px;"/>
              <g>
                <path d="M1022.97,431.23l-60.3-.43,26.67-42.88,60.3-1.51-26.67,44.82ZM965.95,429.23l55.75.33,24.66-41.37-55.75,1.33-24.66,39.72Z" style="fill: #fff; stroke-width: 0px;"/>
                <path d="M1081,431.64l-60.3-.43,26.67-44.75,60.3-1.51-26.67,46.69ZM1023.98,429.57l55.75.33,24.66-43.1-55.75,1.33-24.66,41.44Z" style="fill: #fff; stroke-width: 0px;"/>
                <path d="M1139.02,432.05l-60.3-.43,26.67-46.61,60.3-1.51-26.67,48.55ZM1082,429.91l55.75.33,24.66-44.82-55.75,1.33-24.66,43.16Z" style="fill: #fff; stroke-width: 0px;"/>
                <path d="M1197.05,432.46l-60.3-.43,26.67-48.48,60.3-1.51-26.67,50.42ZM1140.03,430.25l55.75.33,24.66-46.55-55.75,1.33-24.66,44.89Z" style="fill: #fff; stroke-width: 0px;"/>
                <path d="M1255.08,432.87l-60.3-.43,26.67-50.35,60.3-1.51-26.67,52.28ZM1198.06,430.59l55.75.33,24.66-48.27-55.75,1.33-24.66,46.61Z" style="fill: #fff; stroke-width: 0px;"/>
              </g>
              <g>
                <path d="M997.31,472.74l-60.3-2.29,26.67-41.23,60.3.36-26.67,43.17ZM940.29,469l55.75,2.05,24.66-39.85-55.75-.4-24.66,38.19Z" style="fill: #fff; stroke-width: 0px;"/>
                <path d="M1055.33,474.95l-60.3-2.29,26.67-43.1,60.3.35-26.67,45.04ZM998.32,471.14l55.75,2.05,24.66-41.57-55.75-.4-24.66,39.91Z" style="fill: #fff; stroke-width: 0px;"/>
                <path d="M1113.36,477.15l-60.3-2.29,26.67-44.96,60.3.35-26.67,46.9ZM1056.34,473.28l55.75,2.05,24.66-43.3-55.75-.4-24.66,41.64Z" style="fill: #fff; stroke-width: 0px;"/>
                <path d="M1171.39,479.36l-60.3-2.29,26.67-46.83,60.3.35-26.67,48.77ZM1114.37,475.41l55.75,2.05,24.66-45.02-55.75-.4-24.66,43.36Z" style="fill: #fff; stroke-width: 0px;"/>
                <path d="M1229.41,481.57l-60.3-2.29,26.67-48.7,60.3.35-26.67,50.63ZM1172.39,477.55l55.75,2.05,24.66-46.74-55.75-.4-24.66,45.09Z" style="fill: #fff; stroke-width: 0px;"/>
              </g>
              <g>
                <path d="M971.64,512.66l-60.3-4.16,26.67-39.58,60.3,2.22-26.67,41.52ZM914.62,507.2l55.75,3.78,24.66-38.32-55.75-2.12-24.66,36.66Z" style="fill: #fff; stroke-width: 0px;"/>
                <path d="M1029.67,516.67l-60.3-4.16,26.67-41.45,60.3,2.22-26.67,43.39ZM972.65,511.13l55.75,3.78,24.66-40.05-55.75-2.12-24.66,38.39Z" style="fill: #fff; stroke-width: 0px;"/>
                <path d="M1087.7,520.67l-60.3-4.16,26.67-43.31,60.3,2.22-26.67,45.25ZM1030.68,515.06l55.75,3.78,24.66-41.77-55.75-2.12-24.66,40.11Z" style="fill: #fff; stroke-width: 0px;"/>
                <path d="M1145.72,524.67l-60.3-4.16,26.67-45.18,60.3,2.22-26.67,47.12ZM1088.7,518.99l55.75,3.78,24.66-43.49-55.75-2.12-24.66,41.84Z" style="fill: #fff; stroke-width: 0px;"/>
                <path d="M1203.75,528.67l-60.3-4.16,26.67-47.05,60.3,2.22-26.67,48.98ZM1146.73,522.92l55.75,3.78,24.66-45.22-55.75-2.12-24.66,43.56Z" style="fill: #fff; stroke-width: 0px;"/>
              </g>
            </g>
            <path d="M1305.77,329.76l-102.66,197.93-290.13-19.83,102.66-162.03,290.13-16.07M1315.62,323.15l-6.83.4-290.13,17.12-6.83.4-3.02,5.13-102.66,161.18-3.02,4.36,6.83.49,290.13,20.89,6.83.49,3.02-5.46,102.66-198.77,3.02-6.23h0Z" style="fill: #fff; stroke-width: 0px;"/>
          </g>
        </g>
        <g>
          <polygon points="884.9 519.41 581.1 495.33 573.94 488.03 877.74 509.9 884.9 519.41" style="fill: #a6edff; stroke-width: 0px;"/>
          <polygon points="885.89 490.61 877.74 509.9 884.9 519.41 989.98 353.06 986.52 343.61 885.89 490.61" style="fill: #a6edff; stroke-width: 0px;"/>
          <g>
            <g>
              <g>
                <polygon points="718.79 395.34 660.77 396.76 686.43 364.05 744.46 360.84 718.79 395.34" style="fill: #004d63; stroke-width: 0px;"/>
                <polygon points="689.8 367.22 660.77 396.76 686.43 364.05 744.46 360.84 689.8 367.22" style="fill: #004d63; mix-blend-mode: screen; stroke-width: 0px;"/>
              </g>
              <g>
                <polygon points="776.82 393.92 718.79 395.34 744.46 360.84 802.48 357.63 776.82 393.92" style="fill: #004d63; stroke-width: 0px;"/>
                <polygon points="747.83 364.19 718.79 395.34 744.46 360.84 802.48 357.63 747.83 364.19" style="fill: #004d63; mix-blend-mode: screen; stroke-width: 0px;"/>
              </g>
              <g>
                <polygon points="834.85 392.5 776.82 393.92 802.48 357.63 860.51 354.41 834.85 392.5" style="fill: #004d63; stroke-width: 0px;"/>
                <polygon points="805.85 361.17 776.82 393.92 802.48 357.63 860.51 354.41 805.85 361.17" style="fill: #004d63; mix-blend-mode: screen; stroke-width: 0px;"/>
              </g>
              <g>
                <polygon points="892.87 391.09 834.85 392.5 860.51 354.41 918.54 351.2 892.87 391.09" style="fill: #004d63; stroke-width: 0px;"/>
                <polygon points="863.88 358.14 834.85 392.5 860.51 354.41 918.54 351.2 863.88 358.14" style="fill: #004d63; mix-blend-mode: screen; stroke-width: 0px;"/>
              </g>
              <g>
                <polygon points="950.9 389.67 892.87 391.09 918.54 351.2 976.56 347.99 950.9 389.67" style="fill: #004d63; stroke-width: 0px;"/>
                <polygon points="921.91 355.11 892.87 391.09 918.54 351.2 976.56 347.99 921.91 355.11" style="fill: #004d63; mix-blend-mode: screen; stroke-width: 0px;"/>
              </g>
              <g>
                <polygon points="693.13 428.25 635.1 427.88 660.77 396.76 718.79 395.34 693.13 428.25" style="fill: #004d63; stroke-width: 0px;"/>
                <polygon points="664.14 399.95 635.1 427.88 660.77 396.76 718.79 395.34 664.14 399.95" style="fill: #004d63; mix-blend-mode: screen; stroke-width: 0px;"/>
              </g>
              <g>
                <polygon points="751.15 428.63 693.13 428.25 718.79 395.34 776.82 393.92 751.15 428.63" style="fill: #004d63; stroke-width: 0px;"/>
                <polygon points="722.16 398.71 693.13 428.25 718.79 395.34 776.82 393.92 722.16 398.71" style="fill: #004d63; mix-blend-mode: screen; stroke-width: 0px;"/>
              </g>
              <g>
                <polygon points="809.18 429.01 751.15 428.63 776.82 393.92 834.85 392.5 809.18 429.01" style="fill: #004d63; stroke-width: 0px;"/>
                <polygon points="780.19 397.48 751.15 428.63 776.82 393.92 834.85 392.5 780.19 397.48" style="fill: #004d63; mix-blend-mode: screen; stroke-width: 0px;"/>
              </g>
              <g>
                <polygon points="867.21 429.38 809.18 429.01 834.85 392.5 892.87 391.09 867.21 429.38" style="fill: #004d63; stroke-width: 0px;"/>
                <polygon points="838.22 396.25 809.18 429.01 834.85 392.5 892.87 391.09 838.22 396.25" style="fill: #004d63; mix-blend-mode: screen; stroke-width: 0px;"/>
              </g>
              <g>
                <polygon points="925.23 429.76 867.21 429.38 892.87 391.09 950.9 389.67 925.23 429.76" style="fill: #004d63; stroke-width: 0px;"/>
                <polygon points="896.24 395.02 867.21 429.38 892.87 391.09 950.9 389.67 896.24 395.02" style="fill: #004d63; mix-blend-mode: screen; stroke-width: 0px;"/>
              </g>
              <g>
                <polygon points="667.47 459.58 609.44 457.41 635.1 427.88 693.13 428.25 667.47 459.58" style="fill: #004d63; stroke-width: 0px;"/>
                <polygon points="638.47 431.08 609.44 457.41 635.1 427.88 693.13 428.25 638.47 431.08" style="fill: #004d63; mix-blend-mode: screen; stroke-width: 0px;"/>
              </g>
              <g>
                <polygon points="725.49 461.75 667.47 459.58 693.13 428.25 751.15 428.63 725.49 461.75" style="fill: #004d63; stroke-width: 0px;"/>
                <polygon points="696.5 431.65 667.47 459.58 693.13 428.25 751.15 428.63 696.5 431.65" style="fill: #004d63; mix-blend-mode: screen; stroke-width: 0px;"/>
              </g>
              <g>
                <polygon points="783.52 463.92 725.49 461.75 751.15 428.63 809.18 429.01 783.52 463.92" style="fill: #004d63; stroke-width: 0px;"/>
                <polygon points="754.53 432.21 725.49 461.75 751.15 428.63 809.18 429.01 754.53 432.21" style="fill: #004d63; mix-blend-mode: screen; stroke-width: 0px;"/>
              </g>
              <g>
                <polygon points="841.54 466.09 783.52 463.92 809.18 429.01 867.21 429.38 841.54 466.09" style="fill: #004d63; stroke-width: 0px;"/>
                <polygon points="812.55 432.78 783.52 463.92 809.18 429.01 867.21 429.38 812.55 432.78" style="fill: #004d63; mix-blend-mode: screen; stroke-width: 0px;"/>
              </g>
              <g>
                <polygon points="899.57 468.26 841.54 466.09 867.21 429.38 925.23 429.76 899.57 468.26" style="fill: #004d63; stroke-width: 0px;"/>
                <polygon points="870.58 433.34 841.54 466.09 867.21 429.38 925.23 429.76 870.58 433.34" style="fill: #004d63; mix-blend-mode: screen; stroke-width: 0px;"/>
              </g>
              <g>
                <polygon points="641.8 489.31 583.77 485.35 609.44 457.41 667.47 459.58 641.8 489.31" style="fill: #004d63; stroke-width: 0px;"/>
                <polygon points="612.81 460.64 583.77 485.35 609.44 457.41 667.47 459.58 612.81 460.64" style="fill: #004d63; mix-blend-mode: screen; stroke-width: 0px;"/>
              </g>
              <g>
                <polygon points="699.83 493.28 641.8 489.31 667.47 459.58 725.49 461.75 699.83 493.28" style="fill: #004d63; stroke-width: 0px;"/>
                <polygon points="670.84 462.99 641.8 489.31 667.47 459.58 725.49 461.75 670.84 462.99" style="fill: #004d63; mix-blend-mode: screen; stroke-width: 0px;"/>
              </g>
              <g>
                <polygon points="757.85 497.25 699.83 493.28 725.49 461.75 783.52 463.92 757.85 497.25" style="fill: #004d63; stroke-width: 0px;"/>
                <polygon points="728.86 465.35 699.83 493.28 725.49 461.75 783.52 463.92 728.86 465.35" style="fill: #004d63; mix-blend-mode: screen; stroke-width: 0px;"/>
              </g>
              <g>
                <polygon points="815.88 501.21 757.85 497.25 783.52 463.92 841.54 466.09 815.88 501.21" style="fill: #004d63; stroke-width: 0px;"/>
                <polygon points="786.89 467.71 757.85 497.25 783.52 463.92 841.54 466.09 786.89 467.71" style="fill: #004d63; mix-blend-mode: screen; stroke-width: 0px;"/>
              </g>
              <g>
                <polygon points="873.9 505.18 815.88 501.21 841.54 466.09 899.57 468.26 873.9 505.18" style="fill: #004d63; stroke-width: 0px;"/>
                <polygon points="844.91 470.07 815.88 501.21 841.54 466.09 899.57 468.26 844.91 470.07" style="fill: #004d63; mix-blend-mode: screen; stroke-width: 0px;"/>
              </g>
            </g>
            <g>
              <path d="M719.43,395.97l-60.3,1.44,26.67-33.95,60.3-3.38-26.67,35.89ZM662.41,396.1l55.75-1.4,24.66-33.11-55.75,3.05-24.66,31.46Z" style="fill: #fff; stroke-width: 0px;"/>
              <path d="M777.45,394.59l-60.3,1.44,26.67-35.82,60.3-3.38-26.67,37.76ZM720.43,394.65l55.75-1.4,24.66-34.84-55.75,3.05-24.66,33.18Z" style="fill: #fff; stroke-width: 0px;"/>
              <path d="M835.48,393.21l-60.3,1.44,26.67-37.68,60.3-3.38-26.67,39.62ZM778.46,393.2l55.75-1.4,24.66-36.56-55.75,3.05-24.66,34.91Z" style="fill: #fff; stroke-width: 0px;"/>
              <path d="M893.51,391.82l-60.3,1.44,26.67-39.55,60.3-3.38-26.67,41.49ZM836.49,391.74l55.75-1.4,24.66-38.29-55.75,3.05-24.66,36.63Z" style="fill: #fff; stroke-width: 0px;"/>
              <path d="M951.53,390.44l-60.3,1.44,26.67-41.41,60.3-3.38-26.67,43.35ZM894.51,390.29l55.75-1.4,24.66-40.01-55.75,3.05-24.66,38.35Z" style="fill: #fff; stroke-width: 0px;"/>
              <g>
                <path d="M693.76,428.89l-60.3-.43,26.67-32.3,60.3-1.51-26.67,34.24ZM636.74,427.29l55.75.33,24.66-31.59-55.75,1.33-24.66,29.93Z" style="fill: #fff; stroke-width: 0px;"/>
                <path d="M751.79,429.3l-60.3-.43,26.67-34.17,60.3-1.51-26.67,36.1ZM694.77,427.63l55.75.33,24.66-33.31-55.75,1.33-24.66,31.66Z" style="fill: #fff; stroke-width: 0px;"/>
                <path d="M809.82,429.71l-60.3-.43,26.67-36.03,60.3-1.51-26.67,37.97ZM752.8,427.97l55.75.33,24.66-35.04-55.75,1.33-24.66,33.38Z" style="fill: #fff; stroke-width: 0px;"/>
                <path d="M867.84,430.13l-60.3-.43,26.67-37.9,60.3-1.51-26.67,39.84ZM810.82,428.31l55.75.33,24.66-36.76-55.75,1.33-24.66,35.1Z" style="fill: #fff; stroke-width: 0px;"/>
                <path d="M925.87,430.54l-60.3-.43,26.67-39.76,60.3-1.51-26.67,41.7ZM868.85,428.65l55.75.33,24.66-38.49-55.75,1.33-24.66,36.83Z" style="fill: #fff; stroke-width: 0px;"/>
              </g>
              <g>
                <path d="M668.1,460.22l-60.3-2.29,26.67-30.65,60.3.36-26.67,32.59ZM611.08,456.88l55.75,2.05,24.66-30.06-55.75-.4-24.66,28.41Z" style="fill: #fff; stroke-width: 0px;"/>
                <path d="M726.13,462.43l-60.3-2.29,26.67-32.52,60.3.35-26.67,34.45ZM669.11,459.02l55.75,2.05,24.66-31.79-55.75-.4-24.66,30.13Z" style="fill: #fff; stroke-width: 0px;"/>
                <path d="M784.15,464.63l-60.3-2.29,26.67-34.38,60.3.35-26.67,36.32ZM727.13,461.16l55.75,2.05,24.66-33.51-55.75-.4-24.66,31.85Z" style="fill: #fff; stroke-width: 0px;"/>
                <path d="M842.18,466.84l-60.3-2.29,26.67-36.25,60.3.35-26.67,38.19ZM785.16,463.29l55.75,2.05,24.66-35.24-55.75-.4-24.66,33.58Z" style="fill: #fff; stroke-width: 0px;"/>
                <path d="M900.2,469.05l-60.3-2.29,26.67-38.11,60.3.35-26.67,40.05ZM843.18,465.43l55.75,2.05,24.66-36.96-55.75-.4-24.66,35.3Z" style="fill: #fff; stroke-width: 0px;"/>
              </g>
              <g>
                <path d="M642.44,489.96l-60.3-4.16,26.67-29,60.3,2.22-26.67,30.94ZM585.42,484.89l55.75,3.78,24.66-28.54-55.75-2.12-24.66,26.88Z" style="fill: #fff; stroke-width: 0px;"/>
                <path d="M700.46,493.96l-60.3-4.16,26.67-30.87,60.3,2.22-26.67,32.8ZM643.44,488.82l55.75,3.78,24.66-30.26-55.75-2.12-24.66,28.6Z" style="fill: #fff; stroke-width: 0px;"/>
                <path d="M758.49,497.96l-60.3-4.16,26.67-32.73,60.3,2.22-26.67,34.67ZM701.47,492.75l55.75,3.78,24.66-31.99-55.75-2.12-24.66,30.33Z" style="fill: #fff; stroke-width: 0px;"/>
                <path d="M816.51,501.96l-60.3-4.16,26.67-34.6,60.3,2.22-26.67,36.54ZM759.49,496.69l55.75,3.78,24.66-33.71-55.75-2.12-24.66,32.05Z" style="fill: #fff; stroke-width: 0px;"/>
                <path d="M874.54,505.97l-60.3-4.16,26.67-36.46,60.3,2.22-26.67,38.4ZM817.52,500.62l55.75,3.78,24.66-35.43-55.75-2.12-24.66,33.78Z" style="fill: #fff; stroke-width: 0px;"/>
              </g>
            </g>
            <path d="M976.56,347.99l-102.66,157.19-290.13-19.83,102.66-121.29,290.13-16.07M986.41,342.58l-6.83.4-290.13,17.12-6.83.4-3.02,3.93-102.66,120.45-3.02,3.16,6.83.49,290.13,20.89,6.83.49,3.02-4.26,102.66-158.04,3.02-5.03h0Z" style="fill: #fff; stroke-width: 0px;"/>
          </g>
        </g>
      </g>
    </g>
  </g>
</svg>